<svg width="84" height="48" xmlns="http://www.w3.org/2000/svg"><path d="M0 0h12v6H0V0Zm28 8h12v6H28V8Zm14-8h12v6H42V0Zm14 0h12v6H56V0Zm0 8h12v6H56V8ZM42 8h12v6H42V8Zm0 16h12v6H42v-6Zm14-8h12v6H56v-6Zm14 0h12v6H70v-6Zm0-16h12v6H70V0ZM28 32h12v6H28v-6ZM14 16h12v6H14v-6ZM0 24h12v6H0v-6Zm0 8h12v6H0v-6Zm14 0h12v6H14v-6Zm14 8h12v6H28v-6Zm-14 0h12v6H14v-6Zm28 0h12v6H42v-6Zm14-8h12v6H56v-6Zm0-8h12v6H56v-6Zm14 8h12v6H70v-6Zm0 8h12v6H70v-6ZM14 24h12v6H14v-6Zm14-8h12v6H28v-6ZM14 8h12v6H14V8ZM0 8h12v6H0V8Z" fill="#000" fill-rule="evenodd"/></svg>